<?xml version="1.0" encoding="utf-8"?>
<!-- Generator: Adobe Illustrator 27.9.0, SVG Export Plug-In . SVG Version: 6.00 Build 0)  -->
<svg version="1.1" id="Ebene_1" xmlns="http://www.w3.org/2000/svg" xmlns:xlink="http://www.w3.org/1999/xlink" x="0px" y="0px"
	 viewBox="0 0 128 128" style="enable-background:new 0 0 128 128;" xml:space="preserve">
<style type="text/css">
	.st0{fill:#010202;}
	.st1{fill:#FFFFFF;}
	.st2{fill:none;stroke:#FFFFFF;stroke-width:0.75;stroke-miterlimit:10;}
</style>
<path class="st0" d="M50.77,51.03c0,13.37-9.98,24.22-22.28,24.22C16.84,75.25,9.62,63.9,9.4,63.51c-0.02-0.04-0.42-0.77-0.71-1.39
	c-0.12-0.26-0.24-0.51-0.24-0.51c-0.07-0.16-0.14-0.32-0.21-0.48c-0.04-0.08-0.07-0.16-0.11-0.24c-0.04-0.09-0.08-0.18-0.11-0.27
	c-0.1-0.23-0.19-0.46-0.27-0.71c-0.04-0.09-0.06-0.18-0.1-0.27c-0.37-1.02-0.66-2.07-0.89-3.16C6.6,55.72,7.16,55,7.88,55h21.16
	c0.37,0,0.72,0.19,0.93,0.51c1.59,2.5,3.95,4.08,6.57,4.08c4.25,0,7.78-4.12,8.54-9.57h5.66C50.76,50.36,50.77,50.69,50.77,51.03z"
	/>
<ellipse class="st1" cx="21.51" cy="60.98" rx="1.19" ry="1.19"/>
<path class="st0" d="M39.95,76.23c0.28,0.34,0.11,0.87-0.29,1.02c-2.13,0.82-4.6,0.39-6.4-1.35l-1.67-1.62
	c-0.64-0.63-0.71-1.64-0.12-2.34l2.03-2.44c0.64-0.78,1.82-0.84,2.54-0.13l4.08,3.95c0.29,0.28,0.3,0.74,0,1
	c-0.29,0.25-0.47,0.62-0.47,1.04C39.65,75.7,39.75,75.99,39.95,76.23z"/>
<ellipse transform="matrix(0.6568 -0.754 0.754 0.6568 -38.8315 37.1162)" class="st0" cx="21.36" cy="61.22" rx="0.87" ry="0.91"/>
<path class="st0" d="M48.37,51.03c-1.61,1.85-6.62-0.3-6.89-5.36c-0.02-0.34,0.23-0.62,0.57-0.66
	C47.13,44.56,49.97,49.19,48.37,51.03z"/>
<path class="st0" d="M48.14,50.9c-1.83-1.57,0.29-6.49,5.31-6.76c0.34-0.02,0.63,0.23,0.66,0.57C54.56,49.69,49.97,52.47,48.14,50.9
	z"/>
<path d="M52.59,45.58"/>
<path class="st1" d="M29.7,73.48c-0.63,1.39-5.2,0.9-8.78-0.71c-3.6-1.61-8.21-5.12-7.59-6.52c0.63-1.39,4.59,2.02,8.19,3.62
	S30.33,72.09,29.7,73.48z"/>
<path class="st0" d="M33.82,58.91l1.32-4.34c0.12-0.37-0.29-0.69-0.63-0.49l-3.94,2.29c-0.26,0.15-0.29,0.52-0.05,0.71l2.62,2.04
	C33.38,59.3,33.73,59.19,33.82,58.91z"/>
<path class="st1" d="M48.2,54.11c1.33,0.76,0.4,5.22-1.54,8.62c-1.95,3.4-5.92,7.64-7.25,6.89c-1.33-0.76,2.45-4.35,4.41-7.76
	C45.76,58.47,46.86,53.35,48.2,54.11z"/>
<path class="st1" d="M34.79,61.38c-1.13,1.62-3.73,2.07-5.12,1.12c-1.4-0.96-2.43-3.76-1.29-5.38c1.13-1.62,1.8,1.19,3.2,2.15
	C32.97,60.22,35.92,59.75,34.79,61.38z"/>
<path class="st2" d="M9.16,63.3L9.16,63.3c1.37,0.22,2.94,0.39,4.67,0.46c2.62,0.09,4.95-0.11,6.9-0.4"/>
<path class="st1" d="M18.16,63.71l0.85,1.44c0.1,0.16,0.34,0.13,0.39-0.04l0.48-1.6L18.16,63.71z"/>
<g>
	<path d="M52.91,60.34h3.8l2.98,4.33l0.03-0.01v-4.31h3.75v10.14h-3.8l-2.98-4.33l-0.03,0.01v4.31h-3.75V60.34z"/>
	<path d="M64.7,60.34H72v3.39h-3.12v0.55h2.52v2.41h-2.52v0.57h3.32v3.22h-7.49L64.7,60.34L64.7,60.34z"/>
	<path d="M73.22,60.34h3.84c2.44,0,5.17,0.7,5.17,3.6c0,2.61-2.19,3.66-4.69,3.66H77.4v2.89h-4.17L73.22,60.34L73.22,60.34z
		 M77.51,65.02c0.71,0,1.05-0.38,1.05-0.85c0-0.48-0.35-0.85-1.05-0.85H77.4v1.71h0.11V65.02z"/>
	<path d="M85.81,63.79h-2.83v-3.45h9.83v3.45h-2.83v6.7h-4.17V63.79z"/>
	<path d="M93.89,65.87v-5.53h4.17v5.25c0,0.95,0.31,1.62,1.28,1.62c0.92,0,1.25-0.59,1.25-1.61v-5.27h3.75v5.48
		c0,1.55-0.39,2.54-0.92,3.18c-0.92,1.12-2.61,1.64-4.33,1.64c-1.78,0-3.35-0.56-4.25-1.61C94.33,68.44,93.89,67.53,93.89,65.87z"/>
	<path d="M105.55,60.34h3.8l2.98,4.33l0.03-0.01v-4.31h3.75v10.14h-3.8l-2.98-4.33l-0.03,0.01v4.31h-3.75V60.34z"/>
</g>
</svg>
